<svg width="624" height="460" viewBox="0 0 624 460" fill="none" xmlns="http://www.w3.org/2000/svg">
<g filter="url(#filter0_d_105_99)">
<rect x="2" y="1" width="620" height="456" rx="5" fill="#D9D9D9" fill-opacity="0.25"/>
</g>
<path d="M576 275.5C576.276 275.5 576.5 275.276 576.5 275C576.5 274.724 576.276 274.5 576 274.5V275.5ZM48 275.5H576V274.5H48V275.5Z" fill="#F2F2F2"/>
<path d="M576 345.5C576.276 345.5 576.5 345.276 576.5 345C576.5 344.724 576.276 344.5 576 344.5V345.5ZM48 345.5H576V344.5H48V345.5Z" fill="#F2F2F2"/>
<g filter="url(#filter1_d_105_99)">
<path d="M50 332.276C63.0127 329.297 76.2202 335.968 87.2199 343.532C98.2197 351.096 108.986 360.033 122.102 362.507C146.491 367.092 168.478 348.273 192.282 341.278C206.282 337.159 221.49 337.211 235.463 341.421C251.866 346.369 267.579 356.99 284.553 354.606C295.033 353.13 304.111 346.822 312.526 340.423C326.448 329.828 335.279 308.975 348.63 297.655C363.032 285.441 385.875 281.969 403.706 288.238C414.407 292.007 421.732 301.968 431.887 307.006C451.653 316.837 476.146 305.128 490.276 288.186C504.405 271.245 511.886 249.834 524.002 231.403C536.119 212.985 556.04 196.587 577.962 199.294" stroke="#FFAB99" stroke-width="2" stroke-miterlimit="10" stroke-linecap="round" shape-rendering="crispEdges"/>
</g>
<g filter="url(#filter2_d_105_99)">
<circle cx="542" cy="211" r="6" fill="#FFAB99"/>
<circle cx="542" cy="211" r="6" stroke="#FF5733" stroke-width="2"/>
</g>
<path d="M167.373 199.463C178.984 198.226 190.237 194.714 200.49 189.128C210.744 183.542 219.797 175.991 227.132 166.907L197.042 150.049C193.741 154.137 189.667 157.535 185.053 160.048C180.439 162.562 175.375 164.142 170.15 164.699L167.373 199.463Z" fill="#B23C23"/>
<g filter="url(#filter3_d_105_99)">
<path d="M216.058 182.469C216.787 183.446 218.214 183.549 219.059 182.67C228.674 172.66 236.003 161.33 240.007 147.965C244.234 133.86 244.89 118.926 241.919 104.504L205.101 116.839C206.438 123.329 206.142 130.049 204.24 136.396C202.339 142.744 198.89 148.519 194.205 153.205L216.058 182.469Z" fill="#FFAB99"/>
</g>
<g filter="url(#filter4_d_105_99)">
<path d="M246.909 127.301C248.057 127.368 249.028 126.455 249 125.305C248.605 108.721 243.577 92.5626 234.465 78.6672C224.965 64.1803 211.439 52.7842 195.551 45.8793L181.86 88.2179C189.01 91.3251 195.097 96.4533 199.372 102.972C203.647 109.492 205.924 117.117 205.924 124.913L246.909 127.301Z" fill="#FF8970"/>
</g>
<g filter="url(#filter5_d_105_99)">
<path d="M211.093 50.6658C211.667 49.7222 211.369 48.4897 210.412 47.9369C198.347 40.9621 184.803 36.9162 170.87 36.1383C156.271 35.3231 141.696 38.121 128.436 44.2841C115.177 50.4472 103.642 59.7852 94.8534 71.4711C86.0648 83.1569 80.2938 96.8299 78.0516 111.279C75.8094 125.728 77.1653 140.507 81.999 154.306C86.8327 168.106 94.9952 180.501 105.763 190.392C116.531 200.284 129.573 207.367 143.732 211.015C157.246 214.496 171.38 214.746 184.991 211.755C186.07 211.518 186.728 210.434 186.467 209.361L175.375 163.789C168.982 165.345 162.304 165.3 155.932 163.659C149.56 162.018 143.691 158.83 138.846 154.379C134 149.928 130.327 144.35 128.152 138.14C125.977 131.93 125.366 125.28 126.375 118.778C127.384 112.276 129.981 106.123 133.936 100.864C137.891 95.6056 143.082 91.4034 149.049 88.6301C155.015 85.8567 161.574 84.5976 168.144 84.9644C174.713 85.3312 181.091 87.3126 186.712 90.733L211.093 50.6658Z" fill="#FF5733"/>
</g>
<path d="M50 373.5L132 332L239.5 373.5L334.5 190L444 373.5L500 229L578 240.5" stroke="#FF5733" stroke-width="2" stroke-linecap="round"/>
<g filter="url(#filter6_d_105_99)">
<circle cx="335" cy="190" r="6" fill="#FF5733"/>
<circle cx="335" cy="190" r="6" stroke="#FFAB99" stroke-width="2"/>
</g>
<g filter="url(#filter7_d_105_99)">
<circle cx="239" cy="374" r="4" fill="#FF5733"/>
</g>
<g filter="url(#filter8_d_105_99)">
<circle cx="444" cy="374" r="4" fill="#FF5733"/>
</g>
<g filter="url(#filter9_d_105_99)">
<circle cx="501" cy="231" r="4" fill="#FF5733"/>
</g>
<g filter="url(#filter10_d_105_99)">
<circle cx="132" cy="333" r="4" fill="#FF5733"/>
</g>
<rect x="47" y="43" width="3" height="371" rx="1.5" fill="#F2F2F2"/>
<rect x="47" y="411" width="530" height="3" rx="1.5" fill="#F2F2F2"/>
<circle cx="297" cy="111" r="4.5" fill="#7F2B19" stroke="#7F2B19"/>
<circle cx="297" cy="139" r="5" fill="#FFAB99"/>
<circle cx="414" cy="111" r="5" fill="#FF8970"/>
<circle cx="414" cy="139" r="5" fill="#FF5733"/>
<path d="M318.67 111.662C318.67 112.298 318.564 112.882 318.352 113.414C318.14 113.946 317.842 114.404 317.458 114.788C317.074 115.172 316.612 115.47 316.072 115.682C315.532 115.894 314.932 116 314.272 116H310.966V107.324H314.272C314.932 107.324 315.532 107.432 316.072 107.648C316.612 107.86 317.074 108.158 317.458 108.542C317.842 108.922 318.14 109.378 318.352 109.91C318.564 110.442 318.67 111.026 318.67 111.662ZM317.014 111.662C317.014 111.186 316.95 110.76 316.822 110.384C316.698 110.004 316.516 109.684 316.276 109.424C316.04 109.16 315.752 108.958 315.412 108.818C315.076 108.678 314.696 108.608 314.272 108.608H312.586V114.716H314.272C314.696 114.716 315.076 114.646 315.412 114.506C315.752 114.366 316.04 114.166 316.276 113.906C316.516 113.642 316.698 113.322 316.822 112.946C316.95 112.566 317.014 112.138 317.014 111.662ZM321.895 116H320.275V107.324H321.895V116ZM328.601 112.724L327.545 109.838C327.493 109.71 327.439 109.558 327.383 109.382C327.327 109.206 327.271 109.016 327.215 108.812C327.163 109.016 327.109 109.208 327.053 109.388C326.997 109.564 326.943 109.718 326.891 109.85L325.841 112.724H328.601ZM331.451 116H330.203C330.063 116 329.949 115.966 329.861 115.898C329.773 115.826 329.707 115.738 329.663 115.634L329.015 113.864H325.421L324.773 115.634C324.741 115.726 324.679 115.81 324.587 115.886C324.495 115.962 324.381 116 324.245 116H322.985L326.399 107.324H328.043L331.451 116ZM329.735 104.834L327.791 106.55C327.711 106.622 327.635 106.666 327.563 106.682C327.491 106.698 327.399 106.706 327.287 106.706H326.213L327.467 105.08C327.507 105.024 327.547 104.98 327.587 104.948C327.627 104.912 327.671 104.886 327.719 104.87C327.767 104.854 327.819 104.844 327.875 104.84C327.935 104.836 328.005 104.834 328.085 104.834H329.735ZM335.151 111.452C335.455 111.452 335.719 111.414 335.943 111.338C336.171 111.262 336.357 111.158 336.501 111.026C336.649 110.89 336.759 110.73 336.831 110.546C336.903 110.362 336.939 110.16 336.939 109.94C336.939 109.5 336.793 109.162 336.501 108.926C336.213 108.69 335.771 108.572 335.175 108.572H334.143V111.452H335.151ZM339.303 116H337.845C337.569 116 337.369 115.892 337.245 115.676L335.421 112.898C335.353 112.794 335.277 112.72 335.193 112.676C335.113 112.632 334.993 112.61 334.833 112.61H334.143V116H332.529V107.324H335.175C335.763 107.324 336.267 107.386 336.687 107.51C337.111 107.63 337.457 107.8 337.725 108.02C337.997 108.24 338.197 108.504 338.325 108.812C338.453 109.116 338.517 109.452 338.517 109.82C338.517 110.112 338.473 110.388 338.385 110.648C338.301 110.908 338.177 111.144 338.013 111.356C337.853 111.568 337.653 111.754 337.413 111.914C337.177 112.074 336.907 112.2 336.603 112.292C336.707 112.352 336.803 112.424 336.891 112.508C336.979 112.588 337.059 112.684 337.131 112.796L339.303 116ZM342.04 116H340.42V107.324H342.04V116ZM352.437 111.662C352.437 112.298 352.331 112.888 352.119 113.432C351.911 113.972 351.615 114.44 351.231 114.836C350.847 115.232 350.385 115.542 349.845 115.766C349.305 115.986 348.705 116.096 348.045 116.096C347.389 116.096 346.791 115.986 346.251 115.766C345.711 115.542 345.247 115.232 344.859 114.836C344.475 114.44 344.177 113.972 343.965 113.432C343.753 112.888 343.647 112.298 343.647 111.662C343.647 111.026 343.753 110.438 343.965 109.898C344.177 109.354 344.475 108.884 344.859 108.488C345.247 108.092 345.711 107.784 346.251 107.564C346.791 107.34 347.389 107.228 348.045 107.228C348.485 107.228 348.899 107.28 349.287 107.384C349.675 107.484 350.031 107.628 350.355 107.816C350.679 108 350.969 108.226 351.225 108.494C351.485 108.758 351.705 109.054 351.885 109.382C352.065 109.71 352.201 110.066 352.293 110.45C352.389 110.834 352.437 111.238 352.437 111.662ZM350.787 111.662C350.787 111.186 350.723 110.76 350.595 110.384C350.467 110.004 350.285 109.682 350.049 109.418C349.813 109.154 349.525 108.952 349.185 108.812C348.849 108.672 348.469 108.602 348.045 108.602C347.621 108.602 347.239 108.672 346.899 108.812C346.563 108.952 346.275 109.154 346.035 109.418C345.799 109.682 345.617 110.004 345.489 110.384C345.361 110.76 345.297 111.186 345.297 111.662C345.297 112.138 345.361 112.566 345.489 112.946C345.617 113.322 345.799 113.642 346.035 113.906C346.275 114.166 346.563 114.366 346.899 114.506C347.239 114.646 347.621 114.716 348.045 114.716C348.469 114.716 348.849 114.646 349.185 114.506C349.525 114.366 349.813 114.166 350.049 113.906C350.285 113.642 350.467 113.322 350.595 112.946C350.723 112.566 350.787 112.138 350.787 111.662Z" fill="#F0EEEE"/>
<path d="M315.586 136.902C315.538 136.986 315.486 137.048 315.43 137.088C315.378 137.124 315.312 137.142 315.232 137.142C315.148 137.142 315.056 137.112 314.956 137.052C314.86 136.988 314.744 136.918 314.608 136.842C314.472 136.766 314.312 136.698 314.128 136.638C313.948 136.574 313.734 136.542 313.486 136.542C313.262 136.542 313.066 136.57 312.898 136.626C312.73 136.678 312.588 136.752 312.472 136.848C312.36 136.944 312.276 137.06 312.22 137.196C312.164 137.328 312.136 137.474 312.136 137.634C312.136 137.838 312.192 138.008 312.304 138.144C312.42 138.28 312.572 138.396 312.76 138.492C312.948 138.588 313.162 138.674 313.402 138.75C313.642 138.826 313.888 138.908 314.14 138.996C314.392 139.08 314.638 139.18 314.878 139.296C315.118 139.408 315.332 139.552 315.52 139.728C315.708 139.9 315.858 140.112 315.97 140.364C316.086 140.616 316.144 140.922 316.144 141.282C316.144 141.674 316.076 142.042 315.94 142.386C315.808 142.726 315.612 143.024 315.352 143.28C315.096 143.532 314.782 143.732 314.41 143.88C314.038 144.024 313.612 144.096 313.132 144.096C312.856 144.096 312.584 144.068 312.316 144.012C312.048 143.96 311.79 143.884 311.542 143.784C311.298 143.684 311.068 143.564 310.852 143.424C310.636 143.284 310.444 143.128 310.276 142.956L310.75 142.182C310.79 142.126 310.842 142.08 310.906 142.044C310.97 142.004 311.038 141.984 311.11 141.984C311.21 141.984 311.318 142.026 311.434 142.11C311.55 142.19 311.688 142.28 311.848 142.38C312.008 142.48 312.194 142.572 312.406 142.656C312.622 142.736 312.88 142.776 313.18 142.776C313.64 142.776 313.996 142.668 314.248 142.452C314.5 142.232 314.626 141.918 314.626 141.51C314.626 141.282 314.568 141.096 314.452 140.952C314.34 140.808 314.19 140.688 314.002 140.592C313.814 140.492 313.6 140.408 313.36 140.34C313.12 140.272 312.876 140.198 312.628 140.118C312.38 140.038 312.136 139.942 311.896 139.83C311.656 139.718 311.442 139.572 311.254 139.392C311.066 139.212 310.914 138.988 310.798 138.72C310.686 138.448 310.63 138.114 310.63 137.718C310.63 137.402 310.692 137.094 310.816 136.794C310.944 136.494 311.128 136.228 311.368 135.996C311.608 135.764 311.904 135.578 312.256 135.438C312.608 135.298 313.012 135.228 313.468 135.228C313.98 135.228 314.452 135.308 314.884 135.468C315.316 135.628 315.684 135.852 315.988 136.14L315.586 136.902ZM319.352 136.608V139.014H322.388V140.256H319.352V142.71H323.204V144H317.732V135.324H323.204V136.608H319.352ZM334.222 135.324V144H332.8V138.396C332.8 138.172 332.812 137.93 332.836 137.67L330.214 142.596C330.09 142.832 329.9 142.95 329.644 142.95H329.416C329.16 142.95 328.97 142.832 328.846 142.596L326.194 137.652C326.206 137.784 326.216 137.914 326.224 138.042C326.232 138.17 326.236 138.288 326.236 138.396V144H324.814V135.324H326.032C326.104 135.324 326.166 135.326 326.218 135.33C326.27 135.334 326.316 135.344 326.356 135.36C326.4 135.376 326.438 135.402 326.47 135.438C326.506 135.474 326.54 135.522 326.572 135.582L329.17 140.4C329.238 140.528 329.3 140.66 329.356 140.796C329.416 140.932 329.474 141.072 329.53 141.216C329.586 141.068 329.644 140.926 329.704 140.79C329.764 140.65 329.828 140.516 329.896 140.388L332.458 135.582C332.49 135.522 332.524 135.474 332.56 135.438C332.596 135.402 332.634 135.376 332.674 135.36C332.718 135.344 332.766 135.334 332.818 135.33C332.87 135.326 332.932 135.324 333.004 135.324H334.222ZM340.922 140.724L339.866 137.838C339.814 137.71 339.76 137.558 339.704 137.382C339.648 137.206 339.592 137.016 339.536 136.812C339.484 137.016 339.43 137.208 339.374 137.388C339.318 137.564 339.264 137.718 339.212 137.85L338.162 140.724H340.922ZM343.772 144H342.524C342.384 144 342.27 143.966 342.182 143.898C342.094 143.826 342.028 143.738 341.984 143.634L341.336 141.864H337.742L337.094 143.634C337.062 143.726 337 143.81 336.908 143.886C336.816 143.962 336.702 144 336.566 144H335.306L338.72 135.324H340.364L343.772 144ZM352.164 135.324V144H351.336C351.208 144 351.1 143.98 351.012 143.94C350.928 143.896 350.846 143.824 350.766 143.724L346.236 137.94C346.26 138.204 346.272 138.448 346.272 138.672V144H344.85V135.324H345.696C345.764 135.324 345.822 135.328 345.87 135.336C345.922 135.34 345.966 135.352 346.002 135.372C346.042 135.388 346.08 135.414 346.116 135.45C346.152 135.482 346.192 135.526 346.236 135.582L350.784 141.39C350.772 141.25 350.762 141.112 350.754 140.976C350.746 140.84 350.742 140.714 350.742 140.598V135.324H352.164ZM358.86 140.724L357.804 137.838C357.752 137.71 357.698 137.558 357.642 137.382C357.586 137.206 357.53 137.016 357.474 136.812C357.422 137.016 357.368 137.208 357.312 137.388C357.256 137.564 357.202 137.718 357.15 137.85L356.1 140.724H358.86ZM361.71 144H360.462C360.322 144 360.208 143.966 360.12 143.898C360.032 143.826 359.966 143.738 359.922 143.634L359.274 141.864H355.68L355.032 143.634C355 143.726 354.938 143.81 354.846 143.886C354.754 143.962 354.64 144 354.504 144H353.244L356.658 135.324H358.302L361.71 144ZM367.87 142.668V144H362.788V135.324H364.402V142.668H367.87Z" fill="#F0EEEE"/>
<path d="M437.374 107.324V116H435.952V110.396C435.952 110.172 435.964 109.93 435.988 109.67L433.366 114.596C433.242 114.832 433.052 114.95 432.796 114.95H432.568C432.312 114.95 432.122 114.832 431.998 114.596L429.346 109.652C429.358 109.784 429.368 109.914 429.376 110.042C429.384 110.17 429.388 110.288 429.388 110.396V116H427.966V107.324H429.184C429.256 107.324 429.318 107.326 429.37 107.33C429.422 107.334 429.468 107.344 429.508 107.36C429.552 107.376 429.59 107.402 429.622 107.438C429.658 107.474 429.692 107.522 429.724 107.582L432.322 112.4C432.39 112.528 432.452 112.66 432.508 112.796C432.568 112.932 432.626 113.072 432.682 113.216C432.738 113.068 432.796 112.926 432.856 112.79C432.916 112.65 432.98 112.516 433.048 112.388L435.61 107.582C435.642 107.522 435.676 107.474 435.712 107.438C435.748 107.402 435.786 107.376 435.826 107.36C435.87 107.344 435.918 107.334 435.97 107.33C436.022 107.326 436.084 107.324 436.156 107.324H437.374ZM441.11 108.608V111.014H444.146V112.256H441.11V114.71H444.962V116H439.49V107.324H444.962V108.608H441.11ZM453.886 107.324V116H453.058C452.93 116 452.822 115.98 452.734 115.94C452.65 115.896 452.568 115.824 452.488 115.724L447.958 109.94C447.982 110.204 447.994 110.448 447.994 110.672V116H446.572V107.324H447.418C447.486 107.324 447.544 107.328 447.592 107.336C447.644 107.34 447.688 107.352 447.724 107.372C447.764 107.388 447.802 107.414 447.838 107.45C447.874 107.482 447.914 107.526 447.958 107.582L452.506 113.39C452.494 113.25 452.484 113.112 452.476 112.976C452.468 112.84 452.464 112.714 452.464 112.598V107.324H453.886ZM460.618 108.902C460.57 108.986 460.518 109.048 460.462 109.088C460.41 109.124 460.344 109.142 460.264 109.142C460.18 109.142 460.088 109.112 459.988 109.052C459.892 108.988 459.776 108.918 459.64 108.842C459.504 108.766 459.344 108.698 459.16 108.638C458.98 108.574 458.766 108.542 458.518 108.542C458.294 108.542 458.098 108.57 457.93 108.626C457.762 108.678 457.62 108.752 457.504 108.848C457.392 108.944 457.308 109.06 457.252 109.196C457.196 109.328 457.168 109.474 457.168 109.634C457.168 109.838 457.224 110.008 457.336 110.144C457.452 110.28 457.604 110.396 457.792 110.492C457.98 110.588 458.194 110.674 458.434 110.75C458.674 110.826 458.92 110.908 459.172 110.996C459.424 111.08 459.67 111.18 459.91 111.296C460.15 111.408 460.364 111.552 460.552 111.728C460.74 111.9 460.89 112.112 461.002 112.364C461.118 112.616 461.176 112.922 461.176 113.282C461.176 113.674 461.108 114.042 460.972 114.386C460.84 114.726 460.644 115.024 460.384 115.28C460.128 115.532 459.814 115.732 459.442 115.88C459.07 116.024 458.644 116.096 458.164 116.096C457.888 116.096 457.616 116.068 457.348 116.012C457.08 115.96 456.822 115.884 456.574 115.784C456.33 115.684 456.1 115.564 455.884 115.424C455.668 115.284 455.476 115.128 455.308 114.956L455.782 114.182C455.822 114.126 455.874 114.08 455.938 114.044C456.002 114.004 456.07 113.984 456.142 113.984C456.242 113.984 456.35 114.026 456.466 114.11C456.582 114.19 456.72 114.28 456.88 114.38C457.04 114.48 457.226 114.572 457.438 114.656C457.654 114.736 457.912 114.776 458.212 114.776C458.672 114.776 459.028 114.668 459.28 114.452C459.532 114.232 459.658 113.918 459.658 113.51C459.658 113.282 459.6 113.096 459.484 112.952C459.372 112.808 459.222 112.688 459.034 112.592C458.846 112.492 458.632 112.408 458.392 112.34C458.152 112.272 457.908 112.198 457.66 112.118C457.412 112.038 457.168 111.942 456.928 111.83C456.688 111.718 456.474 111.572 456.286 111.392C456.098 111.212 455.946 110.988 455.83 110.72C455.718 110.448 455.662 110.114 455.662 109.718C455.662 109.402 455.724 109.094 455.848 108.794C455.976 108.494 456.16 108.228 456.4 107.996C456.64 107.764 456.936 107.578 457.288 107.438C457.64 107.298 458.044 107.228 458.5 107.228C459.012 107.228 459.484 107.308 459.916 107.468C460.348 107.628 460.716 107.852 461.02 108.14L460.618 108.902ZM467.172 112.724L466.116 109.838C466.064 109.71 466.01 109.558 465.954 109.382C465.898 109.206 465.842 109.016 465.786 108.812C465.734 109.016 465.68 109.208 465.624 109.388C465.568 109.564 465.514 109.718 465.462 109.85L464.412 112.724H467.172ZM470.022 116H468.774C468.634 116 468.52 115.966 468.432 115.898C468.344 115.826 468.278 115.738 468.234 115.634L467.586 113.864H463.992L463.344 115.634C463.312 115.726 463.25 115.81 463.158 115.886C463.066 115.962 462.952 116 462.816 116H461.556L464.97 107.324H466.614L470.022 116ZM476.182 114.668V116H471.1V107.324H472.714V114.668H476.182Z" fill="#F0EEEE"/>
<path d="M432.55 140.724L431.494 137.838C431.442 137.71 431.388 137.558 431.332 137.382C431.276 137.206 431.22 137.016 431.164 136.812C431.112 137.016 431.058 137.208 431.002 137.388C430.946 137.564 430.892 137.718 430.84 137.85L429.79 140.724H432.55ZM435.4 144H434.152C434.012 144 433.898 143.966 433.81 143.898C433.722 143.826 433.656 143.738 433.612 143.634L432.964 141.864H429.37L428.722 143.634C428.69 143.726 428.628 143.81 428.536 143.886C428.444 143.962 428.33 144 428.194 144H426.934L430.348 135.324H431.992L435.4 144ZM443.792 135.324V144H442.964C442.836 144 442.728 143.98 442.64 143.94C442.556 143.896 442.474 143.824 442.394 143.724L437.864 137.94C437.888 138.204 437.9 138.448 437.9 138.672V144H436.478V135.324H437.324C437.392 135.324 437.45 135.328 437.498 135.336C437.55 135.34 437.594 135.352 437.63 135.372C437.67 135.388 437.708 135.414 437.744 135.45C437.78 135.482 437.82 135.526 437.864 135.582L442.412 141.39C442.4 141.25 442.39 141.112 442.382 140.976C442.374 140.84 442.37 140.714 442.37 140.598V135.324H443.792ZM449.396 142.698C449.708 142.698 449.986 142.646 450.23 142.542C450.478 142.438 450.686 142.292 450.854 142.104C451.022 141.916 451.15 141.688 451.238 141.42C451.33 141.152 451.376 140.852 451.376 140.52V135.324H452.99V140.52C452.99 141.036 452.906 141.514 452.738 141.954C452.574 142.39 452.336 142.768 452.024 143.088C451.716 143.404 451.34 143.652 450.896 143.832C450.452 144.008 449.952 144.096 449.396 144.096C448.836 144.096 448.334 144.008 447.89 143.832C447.446 143.652 447.068 143.404 446.756 143.088C446.448 142.768 446.21 142.39 446.042 141.954C445.878 141.514 445.796 141.036 445.796 140.52V135.324H447.41V140.514C447.41 140.846 447.454 141.146 447.542 141.414C447.634 141.682 447.764 141.912 447.932 142.104C448.104 142.292 448.312 142.438 448.556 142.542C448.804 142.646 449.084 142.698 449.396 142.698ZM459.363 140.724L458.307 137.838C458.255 137.71 458.201 137.558 458.145 137.382C458.089 137.206 458.033 137.016 457.977 136.812C457.925 137.016 457.871 137.208 457.815 137.388C457.759 137.564 457.705 137.718 457.653 137.85L456.603 140.724H459.363ZM462.213 144H460.965C460.825 144 460.711 143.966 460.623 143.898C460.535 143.826 460.469 143.738 460.425 143.634L459.777 141.864H456.183L455.535 143.634C455.503 143.726 455.441 143.81 455.349 143.886C455.257 143.962 455.143 144 455.007 144H453.747L457.161 135.324H458.805L462.213 144ZM468.373 142.668V144H463.291V135.324H464.905V142.668H468.373Z" fill="#F0EEEE"/>
<defs>
<filter id="filter0_d_105_99" x="0" y="0" width="624" height="460" filterUnits="userSpaceOnUse" color-interpolation-filters="sRGB">
<feFlood flood-opacity="0" result="BackgroundImageFix"/>
<feColorMatrix in="SourceAlpha" type="matrix" values="0 0 0 0 0 0 0 0 0 0 0 0 0 0 0 0 0 0 127 0" result="hardAlpha"/>
<feOffset dy="1"/>
<feGaussianBlur stdDeviation="1"/>
<feColorMatrix type="matrix" values="0 0 0 0 0 0 0 0 0 0 0 0 0 0 0 0 0 0 0.25 0"/>
<feBlend mode="normal" in2="BackgroundImageFix" result="effect1_dropShadow_105_99"/>
<feBlend mode="normal" in="SourceGraphic" in2="effect1_dropShadow_105_99" result="shape"/>
</filter>
<filter id="filter1_d_105_99" x="46.9998" y="196.999" width="533.962" height="170.219" filterUnits="userSpaceOnUse" color-interpolation-filters="sRGB">
<feFlood flood-opacity="0" result="BackgroundImageFix"/>
<feColorMatrix in="SourceAlpha" type="matrix" values="0 0 0 0 0 0 0 0 0 0 0 0 0 0 0 0 0 0 127 0" result="hardAlpha"/>
<feOffset dy="1"/>
<feGaussianBlur stdDeviation="1"/>
<feComposite in2="hardAlpha" operator="out"/>
<feColorMatrix type="matrix" values="0 0 0 0 0 0 0 0 0 0 0 0 0 0 0 0 0 0 0.25 0"/>
<feBlend mode="normal" in2="BackgroundImageFix" result="effect1_dropShadow_105_99"/>
<feBlend mode="normal" in="SourceGraphic" in2="effect1_dropShadow_105_99" result="shape"/>
</filter>
<filter id="filter2_d_105_99" x="533" y="203" width="18" height="18" filterUnits="userSpaceOnUse" color-interpolation-filters="sRGB">
<feFlood flood-opacity="0" result="BackgroundImageFix"/>
<feColorMatrix in="SourceAlpha" type="matrix" values="0 0 0 0 0 0 0 0 0 0 0 0 0 0 0 0 0 0 127 0" result="hardAlpha"/>
<feOffset dy="1"/>
<feGaussianBlur stdDeviation="1"/>
<feComposite in2="hardAlpha" operator="out"/>
<feColorMatrix type="matrix" values="0 0 0 0 0 0 0 0 0 0 0 0 0 0 0 0 0 0 0.25 0"/>
<feBlend mode="normal" in2="BackgroundImageFix" result="effect1_dropShadow_105_99"/>
<feBlend mode="normal" in="SourceGraphic" in2="effect1_dropShadow_105_99" result="shape"/>
</filter>
<filter id="filter3_d_105_99" x="192.205" y="103.504" width="53.5433" height="82.7661" filterUnits="userSpaceOnUse" color-interpolation-filters="sRGB">
<feFlood flood-opacity="0" result="BackgroundImageFix"/>
<feColorMatrix in="SourceAlpha" type="matrix" values="0 0 0 0 0 0 0 0 0 0 0 0 0 0 0 0 0 0 127 0" result="hardAlpha"/>
<feOffset dy="1"/>
<feGaussianBlur stdDeviation="1"/>
<feComposite in2="hardAlpha" operator="out"/>
<feColorMatrix type="matrix" values="0 0 0 0 0 0 0 0 0 0 0 0 0 0 0 0 0 0 0.25 0"/>
<feBlend mode="normal" in2="BackgroundImageFix" result="effect1_dropShadow_105_99"/>
<feBlend mode="normal" in="SourceGraphic" in2="effect1_dropShadow_105_99" result="shape"/>
</filter>
<filter id="filter4_d_105_99" x="179.86" y="44.8793" width="71.1404" height="85.4255" filterUnits="userSpaceOnUse" color-interpolation-filters="sRGB">
<feFlood flood-opacity="0" result="BackgroundImageFix"/>
<feColorMatrix in="SourceAlpha" type="matrix" values="0 0 0 0 0 0 0 0 0 0 0 0 0 0 0 0 0 0 127 0" result="hardAlpha"/>
<feOffset dy="1"/>
<feGaussianBlur stdDeviation="1"/>
<feComposite in2="hardAlpha" operator="out"/>
<feColorMatrix type="matrix" values="0 0 0 0 0 0 0 0 0 0 0 0 0 0 0 0 0 0 0.25 0"/>
<feBlend mode="normal" in2="BackgroundImageFix" result="effect1_dropShadow_105_99"/>
<feBlend mode="normal" in="SourceGraphic" in2="effect1_dropShadow_105_99" result="shape"/>
</filter>
<filter id="filter5_d_105_99" x="75" y="35" width="138.385" height="181.826" filterUnits="userSpaceOnUse" color-interpolation-filters="sRGB">
<feFlood flood-opacity="0" result="BackgroundImageFix"/>
<feColorMatrix in="SourceAlpha" type="matrix" values="0 0 0 0 0 0 0 0 0 0 0 0 0 0 0 0 0 0 127 0" result="hardAlpha"/>
<feOffset dy="1"/>
<feGaussianBlur stdDeviation="1"/>
<feComposite in2="hardAlpha" operator="out"/>
<feColorMatrix type="matrix" values="0 0 0 0 0 0 0 0 0 0 0 0 0 0 0 0 0 0 0.25 0"/>
<feBlend mode="normal" in2="BackgroundImageFix" result="effect1_dropShadow_105_99"/>
<feBlend mode="normal" in="SourceGraphic" in2="effect1_dropShadow_105_99" result="shape"/>
</filter>
<filter id="filter6_d_105_99" x="326" y="182" width="18" height="18" filterUnits="userSpaceOnUse" color-interpolation-filters="sRGB">
<feFlood flood-opacity="0" result="BackgroundImageFix"/>
<feColorMatrix in="SourceAlpha" type="matrix" values="0 0 0 0 0 0 0 0 0 0 0 0 0 0 0 0 0 0 127 0" result="hardAlpha"/>
<feOffset dy="1"/>
<feGaussianBlur stdDeviation="1"/>
<feComposite in2="hardAlpha" operator="out"/>
<feColorMatrix type="matrix" values="0 0 0 0 0 0 0 0 0 0 0 0 0 0 0 0 0 0 0.25 0"/>
<feBlend mode="normal" in2="BackgroundImageFix" result="effect1_dropShadow_105_99"/>
<feBlend mode="normal" in="SourceGraphic" in2="effect1_dropShadow_105_99" result="shape"/>
</filter>
<filter id="filter7_d_105_99" x="233" y="369" width="12" height="12" filterUnits="userSpaceOnUse" color-interpolation-filters="sRGB">
<feFlood flood-opacity="0" result="BackgroundImageFix"/>
<feColorMatrix in="SourceAlpha" type="matrix" values="0 0 0 0 0 0 0 0 0 0 0 0 0 0 0 0 0 0 127 0" result="hardAlpha"/>
<feOffset dy="1"/>
<feGaussianBlur stdDeviation="1"/>
<feComposite in2="hardAlpha" operator="out"/>
<feColorMatrix type="matrix" values="0 0 0 0 0 0 0 0 0 0 0 0 0 0 0 0 0 0 0.25 0"/>
<feBlend mode="normal" in2="BackgroundImageFix" result="effect1_dropShadow_105_99"/>
<feBlend mode="normal" in="SourceGraphic" in2="effect1_dropShadow_105_99" result="shape"/>
</filter>
<filter id="filter8_d_105_99" x="438" y="369" width="12" height="12" filterUnits="userSpaceOnUse" color-interpolation-filters="sRGB">
<feFlood flood-opacity="0" result="BackgroundImageFix"/>
<feColorMatrix in="SourceAlpha" type="matrix" values="0 0 0 0 0 0 0 0 0 0 0 0 0 0 0 0 0 0 127 0" result="hardAlpha"/>
<feOffset dy="1"/>
<feGaussianBlur stdDeviation="1"/>
<feComposite in2="hardAlpha" operator="out"/>
<feColorMatrix type="matrix" values="0 0 0 0 0 0 0 0 0 0 0 0 0 0 0 0 0 0 0.25 0"/>
<feBlend mode="normal" in2="BackgroundImageFix" result="effect1_dropShadow_105_99"/>
<feBlend mode="normal" in="SourceGraphic" in2="effect1_dropShadow_105_99" result="shape"/>
</filter>
<filter id="filter9_d_105_99" x="495" y="226" width="12" height="12" filterUnits="userSpaceOnUse" color-interpolation-filters="sRGB">
<feFlood flood-opacity="0" result="BackgroundImageFix"/>
<feColorMatrix in="SourceAlpha" type="matrix" values="0 0 0 0 0 0 0 0 0 0 0 0 0 0 0 0 0 0 127 0" result="hardAlpha"/>
<feOffset dy="1"/>
<feGaussianBlur stdDeviation="1"/>
<feComposite in2="hardAlpha" operator="out"/>
<feColorMatrix type="matrix" values="0 0 0 0 0 0 0 0 0 0 0 0 0 0 0 0 0 0 0.25 0"/>
<feBlend mode="normal" in2="BackgroundImageFix" result="effect1_dropShadow_105_99"/>
<feBlend mode="normal" in="SourceGraphic" in2="effect1_dropShadow_105_99" result="shape"/>
</filter>
<filter id="filter10_d_105_99" x="126" y="328" width="12" height="12" filterUnits="userSpaceOnUse" color-interpolation-filters="sRGB">
<feFlood flood-opacity="0" result="BackgroundImageFix"/>
<feColorMatrix in="SourceAlpha" type="matrix" values="0 0 0 0 0 0 0 0 0 0 0 0 0 0 0 0 0 0 127 0" result="hardAlpha"/>
<feOffset dy="1"/>
<feGaussianBlur stdDeviation="1"/>
<feComposite in2="hardAlpha" operator="out"/>
<feColorMatrix type="matrix" values="0 0 0 0 0 0 0 0 0 0 0 0 0 0 0 0 0 0 0.25 0"/>
<feBlend mode="normal" in2="BackgroundImageFix" result="effect1_dropShadow_105_99"/>
<feBlend mode="normal" in="SourceGraphic" in2="effect1_dropShadow_105_99" result="shape"/>
</filter>
</defs>
</svg>
